<svg width="1200" height="700" viewBox="0 0 1200 700" fill="none" xmlns="http://www.w3.org/2000/svg">
  <defs>
    <linearGradient id="grid" x1="0" y1="0" x2="0" y2="700" gradientUnits="userSpaceOnUse">
      <stop stop-color="#6D7CFF" stop-opacity="0.12"/>
      <stop offset="1" stop-color="#6D7CFF" stop-opacity="0.02"/>
    </linearGradient>
    <linearGradient id="pulse" x1="100" y1="300" x2="1100" y2="300" gradientUnits="userSpaceOnUse">
      <stop stop-color="#9AA5FF" stop-opacity="0"/>
      <stop offset="0.35" stop-color="#9AA5FF" stop-opacity="0.5"/>
      <stop offset="0.65" stop-color="#6D7CFF" stop-opacity="0.7"/>
      <stop offset="1" stop-color="#6D7CFF" stop-opacity="0"/>
    </linearGradient>
  </defs>
  <rect width="1200" height="700" fill="url(#grid)"/>
  <g stroke="#1B1D2B" stroke-width="1">
    <line x1="100" y1="0" x2="100" y2="700"/>
    <line x1="250" y1="0" x2="250" y2="700"/>
    <line x1="400" y1="0" x2="400" y2="700"/>
    <line x1="550" y1="0" x2="550" y2="700"/>
    <line x1="700" y1="0" x2="700" y2="700"/>
    <line x1="850" y1="0" x2="850" y2="700"/>
    <line x1="1000" y1="0" x2="1000" y2="700"/>
    <line x1="0" y1="100" x2="1200" y2="100"/>
    <line x1="0" y1="250" x2="1200" y2="250"/>
    <line x1="0" y1="400" x2="1200" y2="400"/>
    <line x1="0" y1="550" x2="1200" y2="550"/>
  </g>
  <path d="M120 360 C220 260 320 430 420 320 C520 210 620 480 720 340 C820 200 920 410 1080 300" stroke="url(#pulse)" stroke-width="2" fill="none"/>
  <circle cx="420" cy="320" r="5" fill="#9AA5FF" opacity="0.8"/>
  <circle cx="720" cy="340" r="6" fill="#6D7CFF" opacity="0.8"/>
</svg>