<svg xmlns="http://www.w3.org/2000/svg" viewBox="0 0 390 96" role="img" aria-labelledby="title desc">
  <title id="title">DeTime wordmark</title>
  <desc id="desc">DeTime logo and wordmark without a white background.</desc>
  <defs>
    <linearGradient id="blue" x1="12" x2="78" y1="80" y2="12" gradientUnits="userSpaceOnUse">
      <stop offset="0" stop-color="#1F4FFF"/>
      <stop offset="0.58" stop-color="#2D67FF"/>
      <stop offset="1" stop-color="#8EC5FF"/>
    </linearGradient>
  </defs>
  <g transform="translate(4 8)" fill="none" stroke-linecap="round">
    <path d="M18 52a31 31 0 0 1 9-32 31 31 0 0 1 23-9" stroke="url(#blue)" stroke-width="8"/>
    <path d="M58 15a25 25 0 0 1 13 21" stroke="#8EC5FF" stroke-width="6"/>
    <path d="M18 60a37 37 0 0 0 30 14" stroke="#1F4FFF" stroke-width="8"/>
    <path d="M58 65a25 25 0 0 0 13-17" stroke="#1F4FFF" stroke-width="8"/>
    <path d="M29 55a20 20 0 0 1 11-36" stroke="#1F4FFF" stroke-width="7"/>
    <path d="M64 46a13 13 0 0 0 1-7" stroke="#8EC5FF" stroke-width="5"/>
  </g>
  <circle cx="50" cy="56" r="4.8" fill="#FFFFFF"/>
  <circle cx="72" cy="62" r="3.4" fill="#1F4FFF"/>
  <text x="100" y="62" fill="#FFFFFF" font-family="Inter, Arial, sans-serif" font-size="48" font-weight="800" letter-spacing="-2">DeTime</text>
</svg>
